<svg width="59" height="59" viewBox="0 0 59 59" fill="none" xmlns="http://www.w3.org/2000/svg">
<path fill-rule="evenodd" clip-rule="evenodd" d="M17.5956 0.79825C20.6748 0.6565 21.6565 0.625 29.5 0.625C37.3435 0.625 38.3253 0.659125 41.4018 0.79825C44.4783 0.937375 46.5782 1.42825 48.4157 2.13962C50.3399 2.86675 52.0855 4.00337 53.5292 5.47337C54.9992 6.9145 56.1333 8.6575 56.8578 10.5842C57.5718 12.4217 58.06 14.5217 58.2018 17.593C58.3435 20.6774 58.375 21.6591 58.375 29.5C58.375 37.3435 58.3409 38.3252 58.2018 41.4044C58.0626 44.4756 57.5718 46.5756 56.8578 48.4131C56.1332 50.3401 54.9974 52.086 53.5292 53.5292C52.0855 54.9992 50.3399 56.1332 48.4157 56.8577C46.5782 57.5717 44.4782 58.06 41.407 58.2017C38.3252 58.3435 37.3435 58.375 29.5 58.375C21.6565 58.375 20.6748 58.3409 17.5956 58.2017C14.5244 58.0626 12.4244 57.5717 10.5869 56.8577C8.65992 56.1331 6.91403 54.9973 5.47075 53.5292C4.00175 52.0873 2.86495 50.3422 2.13963 48.4157C1.42825 46.5782 0.94 44.4782 0.79825 41.407C0.6565 38.3226 0.625 37.3409 0.625 29.5C0.625 21.6565 0.659125 20.6747 0.79825 17.5982C0.937375 14.5217 1.42825 12.4217 2.13963 10.5842C2.86602 8.65771 4.00369 6.9127 5.47337 5.47075C6.91461 4.00207 8.65874 2.86529 10.5843 2.13962C12.4218 1.42825 14.5218 0.94 17.593 0.79825H17.5956ZM41.1681 5.99575C38.1231 5.85662 37.2096 5.82775 29.5 5.82775C21.7904 5.82775 20.8769 5.85662 17.8319 5.99575C15.0152 6.12437 13.4875 6.59425 12.469 6.99062C11.1224 7.51562 10.159 8.13775 9.14838 9.14837C8.19037 10.0804 7.4531 11.215 6.99062 12.469C6.59425 13.4875 6.12437 15.0152 5.99575 17.8319C5.85663 20.8769 5.82775 21.7904 5.82775 29.5C5.82775 37.2096 5.85663 38.1231 5.99575 41.1681C6.12437 43.9847 6.59425 45.5125 6.99062 46.531C7.45262 47.7831 8.19025 48.9197 9.14838 49.8516C10.0803 50.8097 11.2169 51.5474 12.469 52.0094C13.4875 52.4057 15.0152 52.8756 17.8319 53.0042C20.8769 53.1434 21.7878 53.1722 29.5 53.1722C37.2122 53.1722 38.1231 53.1434 41.1681 53.0042C43.9847 52.8756 45.5125 52.4057 46.531 52.0094C47.8776 51.4844 48.841 50.8622 49.8516 49.8516C50.8097 48.9197 51.5474 47.7831 52.0094 46.531C52.4058 45.5125 52.8756 43.9847 53.0042 41.1681C53.1434 38.1231 53.1722 37.2096 53.1722 29.5C53.1722 21.7904 53.1434 20.8769 53.0042 17.8319C52.8756 15.0152 52.4058 13.4875 52.0094 12.469C51.4844 11.1224 50.8623 10.159 49.8516 9.14837C48.9196 8.19044 47.785 7.45318 46.531 6.99062C45.5125 6.59425 43.9847 6.12437 41.1681 5.99575ZM25.8119 38.4014C27.8716 39.2588 30.1651 39.3745 32.3007 38.7288C34.4363 38.083 36.2814 36.7159 37.521 34.8609C38.7605 33.0059 39.3176 30.778 39.0971 28.5579C38.8766 26.3378 37.8921 24.2631 36.3119 22.6881C35.3045 21.6814 34.0864 20.9105 32.7454 20.431C31.4043 19.9515 29.9736 19.7753 28.5563 19.9151C27.139 20.0549 25.7703 20.5072 24.5487 21.2395C23.3272 21.9717 22.2832 22.9657 21.4919 24.1499C20.7006 25.334 20.1817 26.6789 19.9726 28.0876C19.7635 29.4964 19.8693 30.934 20.2824 32.297C20.6956 33.6599 21.4058 34.9143 22.3619 35.9699C23.318 37.0254 24.4963 37.8559 25.8119 38.4014ZM19.0052 19.0052C20.3834 17.6271 22.0196 16.5338 23.8203 15.7879C25.621 15.0421 27.5509 14.6582 29.5 14.6582C31.4491 14.6582 33.379 15.0421 35.1797 15.7879C36.9804 16.5338 38.6166 17.6271 39.9948 19.0052C41.3729 20.3834 42.4662 22.0196 43.2121 23.8203C43.9579 25.621 44.3418 27.5509 44.3418 29.5C44.3418 31.4491 43.9579 33.379 43.2121 35.1797C42.4662 36.9804 41.3729 38.6166 39.9948 39.9947C37.2114 42.7781 33.4363 44.3418 29.5 44.3418C25.5637 44.3418 21.7886 42.7781 19.0052 39.9947C16.2219 37.2114 14.6582 33.4363 14.6582 29.5C14.6582 25.5637 16.2219 21.7886 19.0052 19.0052ZM47.6335 16.8685C47.975 16.5463 48.2484 16.1589 48.4375 15.7292C48.6267 15.2994 48.7276 14.8361 48.7345 14.3667C48.7413 13.8972 48.6539 13.4312 48.4774 12.9961C48.3009 12.5611 48.0389 12.1658 47.7069 11.8339C47.3749 11.5019 46.9797 11.2399 46.5446 11.0634C46.1096 10.8869 45.6435 10.7994 45.1741 10.8063C44.7046 10.8131 44.2413 10.9141 43.8116 11.1032C43.3818 11.2923 42.9944 11.5657 42.6722 11.9072C42.0457 12.5715 41.7027 13.4537 41.716 14.3667C41.7293 15.2797 42.0979 16.1516 42.7435 16.7972C43.3892 17.4429 44.2611 17.8115 45.1741 17.8248C46.0871 17.8381 46.9693 17.4951 47.6335 16.8685Z" fill="#241400"/>
</svg>
