<svg width="177" height="42" viewBox="0 0 177 42" fill="none" xmlns="http://www.w3.org/2000/svg">
<path d="M47.868 8.5927H56.366V11.0847H51.116V12.2187H53.454C54.6487 12.2187 55.5633 12.4754 56.198 12.9887C56.842 13.4927 57.164 14.2254 57.164 15.1867C57.164 16.1854 56.8 16.9694 56.072 17.5387C55.344 18.108 54.3313 18.3927 53.034 18.3927H47.868V8.5927ZM52.81 16.0827C53.1367 16.0827 53.3887 16.0127 53.566 15.8727C53.7527 15.7327 53.846 15.532 53.846 15.2707C53.846 14.7667 53.5007 14.5147 52.81 14.5147H51.116V16.0827H52.81ZM58.2996 8.5927H61.5476V13.6887L64.9216 8.5927H68.0296V18.3927H64.7816V13.3107L61.4216 18.3927H58.2996V8.5927ZM69.7703 8.5927H78.2683V11.0847H73.0183V12.2187H75.3563C76.551 12.2187 77.4657 12.4754 78.1003 12.9887C78.7443 13.4927 79.0663 14.2254 79.0663 15.1867C79.0663 16.1854 78.7023 16.9694 77.9743 17.5387C77.2463 18.108 76.2337 18.3927 74.9363 18.3927H69.7703V8.5927ZM74.7123 16.0827C75.039 16.0827 75.291 16.0127 75.4683 15.8727C75.655 15.7327 75.7483 15.532 75.7483 15.2707C75.7483 14.7667 75.403 14.5147 74.7123 14.5147H73.0183V16.0827H74.7123ZM89.5589 8.5927V18.3927H86.3109V11.1547H84.0709L84.0429 12.2887C84.0056 13.6887 83.8936 14.8367 83.7069 15.7327C83.5202 16.6287 83.1936 17.3287 82.7269 17.8327C82.2602 18.3274 81.5929 18.5747 80.7249 18.5747C80.2862 18.5747 79.8196 18.514 79.3249 18.3927L79.4929 15.7467C79.6142 15.7747 79.7356 15.7887 79.8569 15.7887C80.2022 15.7887 80.4636 15.6487 80.6409 15.3687C80.8276 15.0887 80.9536 14.7154 81.0189 14.2487C81.0842 13.782 81.1309 13.1707 81.1589 12.4147L81.2849 8.5927H89.5589ZM91.2899 8.5927H94.5379V13.6887L97.9119 8.5927H101.02V18.3927H97.7719V13.3107L94.4119 18.3927H91.2899V8.5927ZM107.745 18.6167C106.69 18.6167 105.743 18.3974 104.903 17.9587C104.063 17.52 103.405 16.9134 102.929 16.1387C102.453 15.3547 102.215 14.4727 102.215 13.4927C102.215 12.5127 102.453 11.6354 102.929 10.8607C103.405 10.0767 104.063 9.46537 104.903 9.0267C105.743 8.58803 106.69 8.3687 107.745 8.3687C108.799 8.3687 109.747 8.58803 110.587 9.0267C111.427 9.46537 112.085 10.0767 112.561 10.8607C113.037 11.6354 113.275 12.5127 113.275 13.4927C113.275 14.4727 113.037 15.3547 112.561 16.1387C112.085 16.9134 111.427 17.52 110.587 17.9587C109.747 18.3974 108.799 18.6167 107.745 18.6167ZM107.745 15.9427C108.155 15.9427 108.524 15.8447 108.851 15.6487C109.187 15.4434 109.453 15.1587 109.649 14.7947C109.845 14.4214 109.943 13.9874 109.943 13.4927C109.943 12.998 109.845 12.5687 109.649 12.2047C109.453 11.8314 109.187 11.5467 108.851 11.3507C108.524 11.1454 108.155 11.0427 107.745 11.0427C107.334 11.0427 106.961 11.1454 106.625 11.3507C106.298 11.5467 106.037 11.8314 105.841 12.2047C105.645 12.5687 105.547 12.998 105.547 13.4927C105.547 13.9874 105.645 14.4214 105.841 14.7947C106.037 15.1587 106.298 15.4434 106.625 15.6487C106.961 15.8447 107.334 15.9427 107.745 15.9427ZM122.671 11.1547H119.801V18.3927H116.553V11.1547H113.683V8.5927H122.671V11.1547ZM131.909 15.9007V18.3927H123.761V8.5927H131.727V11.0847H127.009V12.2327H131.153V14.6127H127.009V15.9007H131.909ZM142.223 8.5927V18.3927H138.975V15.2567C138.322 15.4527 137.729 15.5507 137.197 15.5507C135.76 15.5507 134.663 15.21 133.907 14.5287C133.16 13.8474 132.787 12.8534 132.787 11.5467V8.5927H136.035V11.1827C136.035 11.78 136.166 12.2234 136.427 12.5127C136.688 12.7927 137.085 12.9327 137.617 12.9327C138.168 12.9327 138.62 12.858 138.975 12.7087V8.5927H142.223ZM153.614 8.5927V18.3927H150.31V14.7807H147.258V18.3927H143.954V8.5927H147.258V12.0647H150.31V8.5927H153.614ZM162.272 16.6847H158.548L157.89 18.3927H154.53L158.814 8.5927H162.062L166.346 18.3927H162.93L162.272 16.6847ZM161.362 14.3047L160.41 11.8407L159.458 14.3047H161.362ZM175.286 8.5927V18.3927H172.038V16.0687H171.156L169.658 18.3927H166.2L168.132 15.5927C167.498 15.294 167.008 14.874 166.662 14.3327C166.326 13.782 166.158 13.1334 166.158 12.3867C166.158 11.612 166.34 10.94 166.704 10.3707C167.078 9.80137 167.605 9.3627 168.286 9.0547C168.968 8.7467 169.77 8.5927 170.694 8.5927H175.286ZM170.75 11.1407C169.91 11.1407 169.49 11.5374 169.49 12.3307C169.49 13.1614 169.91 13.5767 170.75 13.5767H172.038V11.1407H170.75Z" fill="white"/>
<path d="M53.796 29.3507H52.236V32.3927H51.313V25.5547H52.236V28.5577H53.809L56.214 25.5547H57.215L54.524 28.8697L57.41 32.3927H56.318L53.796 29.3507ZM58.8667 25.5547H59.7897V28.5837H64.0927V25.5547H65.0157V32.3927H64.0927V29.3767H59.7897V32.3927H58.8667V25.5547ZM67.6392 25.5547H68.5622V30.9887L73.1252 25.5547H73.9442V32.3927H73.0212V26.9587L68.4712 32.3927H67.6392V25.5547ZM82.5824 29.3507H81.1004V32.3927H80.1774V29.3507H78.6954L76.6024 32.3927H75.4974L77.9544 28.8697L75.6924 25.5547H76.6934L78.6954 28.5577H80.1774V25.5547H81.1004V28.5577H82.5824L84.5974 25.5547H85.5984L83.3364 28.8827L85.7934 32.3927H84.6884L82.5824 29.3507ZM87.3296 25.5547H88.2526V28.5837H92.5556V25.5547H93.4786V32.3927H92.5556V29.3767H88.2526V32.3927H87.3296V25.5547ZM98.9751 27.9727C99.8331 27.9814 100.487 28.172 100.938 28.5447C101.389 28.9174 101.614 29.4547 101.614 30.1567C101.614 30.8847 101.371 31.4437 100.886 31.8337C100.401 32.2237 99.7074 32.4144 98.8061 32.4057L96.1021 32.3927V25.5547H97.0251V27.9467L98.9751 27.9727ZM102.758 25.5547H103.681V32.3927H102.758V25.5547ZM98.7541 31.7037C99.3867 31.7124 99.8634 31.5867 100.184 31.3267C100.513 31.058 100.678 30.668 100.678 30.1567C100.678 29.654 100.518 29.2814 100.197 29.0387C99.8764 28.796 99.3954 28.6704 98.7541 28.6617L97.0251 28.6357V31.6777L98.7541 31.7037ZM106.309 25.5547H107.232V30.9887L111.795 25.5547H112.614V32.3927H111.691V26.9587L107.141 32.3927H106.309V25.5547ZM109.416 24.5667C108.827 24.5667 108.359 24.4194 108.012 24.1247C107.665 23.83 107.488 23.414 107.479 22.8767H108.142C108.151 23.2147 108.272 23.4877 108.506 23.6957C108.74 23.895 109.043 23.9947 109.416 23.9947C109.789 23.9947 110.092 23.895 110.326 23.6957C110.569 23.4877 110.694 23.2147 110.703 22.8767H111.366C111.357 23.414 111.175 23.83 110.82 24.1247C110.473 24.4194 110.005 24.5667 109.416 24.5667ZM126.306 25.5547V32.3927H125.461V26.9847L122.692 31.5607H122.276L119.507 26.9717V32.3927H118.662V25.5547H119.598L122.497 30.4817L125.448 25.5547H126.306ZM131.285 25.5027C132.178 25.5027 132.862 25.728 133.339 26.1787C133.816 26.6207 134.054 27.2794 134.054 28.1547V32.3927H133.17V31.3267C132.962 31.682 132.654 31.9594 132.247 32.1587C131.848 32.358 131.372 32.4577 130.817 32.4577C130.054 32.4577 129.448 32.2757 128.997 31.9117C128.546 31.5477 128.321 31.0667 128.321 30.4687C128.321 29.888 128.529 29.42 128.945 29.0647C129.37 28.7094 130.041 28.5317 130.96 28.5317H133.131V28.1157C133.131 27.5264 132.966 27.08 132.637 26.7767C132.308 26.4647 131.827 26.3087 131.194 26.3087C130.761 26.3087 130.345 26.3824 129.946 26.5297C129.547 26.6684 129.205 26.8634 128.919 27.1147L128.503 26.4257C128.85 26.131 129.266 25.9057 129.751 25.7497C130.236 25.585 130.748 25.5027 131.285 25.5027ZM130.96 31.7297C131.48 31.7297 131.926 31.6127 132.299 31.3787C132.672 31.136 132.949 30.7894 133.131 30.3387V29.2207H130.986C129.816 29.2207 129.231 29.628 129.231 30.4427C129.231 30.8414 129.383 31.1577 129.686 31.3917C129.989 31.617 130.414 31.7297 130.96 31.7297ZM141.347 26.3737H137.434V32.3927H136.511V25.5547H141.347V26.3737ZM145.034 25.5027C145.927 25.5027 146.611 25.728 147.088 26.1787C147.565 26.6207 147.803 27.2794 147.803 28.1547V32.3927H146.919V31.3267C146.711 31.682 146.403 31.9594 145.996 32.1587C145.597 32.358 145.121 32.4577 144.566 32.4577C143.803 32.4577 143.197 32.2757 142.746 31.9117C142.295 31.5477 142.07 31.0667 142.07 30.4687C142.07 29.888 142.278 29.42 142.694 29.0647C143.119 28.7094 143.79 28.5317 144.709 28.5317H146.88V28.1157C146.88 27.5264 146.715 27.08 146.386 26.7767C146.057 26.4647 145.576 26.3087 144.943 26.3087C144.51 26.3087 144.094 26.3824 143.695 26.5297C143.296 26.6684 142.954 26.8634 142.668 27.1147L142.252 26.4257C142.599 26.131 143.015 25.9057 143.5 25.7497C143.985 25.585 144.497 25.5027 145.034 25.5027ZM144.709 31.7297C145.229 31.7297 145.675 31.6127 146.048 31.3787C146.421 31.136 146.698 30.7894 146.88 30.3387V29.2207H144.735C143.565 29.2207 142.98 29.628 142.98 30.4427C142.98 30.8414 143.132 31.1577 143.435 31.3917C143.738 31.617 144.163 31.7297 144.709 31.7297ZM153.449 28.8307C153.934 28.9434 154.307 29.1384 154.567 29.4157C154.835 29.693 154.97 30.031 154.97 30.4297C154.97 30.8284 154.831 31.1837 154.554 31.4957C154.285 31.8077 153.917 32.0504 153.449 32.2237C152.981 32.3884 152.465 32.4707 151.902 32.4707C151.408 32.4707 150.922 32.4014 150.446 32.2627C149.969 32.1154 149.553 31.903 149.198 31.6257L149.51 30.9367C149.822 31.1707 150.186 31.3527 150.602 31.4827C151.018 31.6127 151.438 31.6777 151.863 31.6777C152.495 31.6777 153.011 31.5607 153.41 31.3267C153.817 31.084 154.021 30.759 154.021 30.3517C154.021 29.9877 153.856 29.706 153.527 29.5067C153.197 29.2987 152.747 29.1947 152.175 29.1947H151.005V28.5187H152.123C152.634 28.5187 153.046 28.4234 153.358 28.2327C153.67 28.0334 153.826 27.769 153.826 27.4397C153.826 27.0757 153.648 26.7897 153.293 26.5817C152.946 26.3737 152.491 26.2697 151.928 26.2697C151.191 26.2697 150.463 26.456 149.744 26.8287L149.484 26.1137C150.298 25.689 151.143 25.4767 152.019 25.4767C152.539 25.4767 153.007 25.5547 153.423 25.7107C153.847 25.858 154.177 26.0704 154.411 26.3477C154.653 26.625 154.775 26.9457 154.775 27.3097C154.775 27.6564 154.653 27.964 154.411 28.2327C154.177 28.5014 153.856 28.7007 153.449 28.8307ZM157.065 25.5547H157.988V30.9887L162.551 25.5547H163.37V32.3927H162.447V26.9587L157.897 32.3927H157.065V25.5547ZM166.015 25.5547H166.938V28.5837H171.241V25.5547H172.164V32.3927H171.241V29.3767H166.938V32.3927H166.015V25.5547Z" fill="white"/>
<line x1="48" y1="20.8927" x2="175" y2="20.8927" stroke="white" stroke-opacity="0.59"/>
<g clip-path="url(#clip0_6_282)">
<path d="M39.0037 14.9043C38.8339 13.6275 38.81 11.4285 39.9958 10.6901C40.017 10.6766 40.0328 10.657 40.0514 10.6402C41.0209 10.3301 41.6919 9.89492 41.1652 9.30931L26.8633 5L3.70522 8.2197C3.70522 8.2197 1.05333 8.59874 1.29023 12.7188C1.41883 14.9612 2.12213 16.0624 2.73719 16.6044L0.836863 17.1771C0.309419 17.7627 0.980256 18.1981 1.94991 18.5076C1.96834 18.5249 1.98388 18.5444 2.00544 18.5579C3.19056 19.2969 3.16775 21.4957 2.99728 22.7727C-1.26025 23.9817 0.268056 24.3756 0.268056 24.3756L1.20199 24.6016C0.545064 25.1952 -0.107347 26.3209 0.0148627 28.4559C0.251887 32.5752 2.4301 32.8595 2.4301 32.8595L17.5846 37.7852L40.4585 32.2448C40.4585 32.2448 41.9873 31.8502 37.7286 30.6412C37.5574 29.3662 37.5336 27.1676 38.7215 26.4267C38.7433 26.4136 38.7592 26.3936 38.7769 26.3771C39.7465 26.067 40.4169 25.6322 39.89 25.0466L38.8958 24.7464C39.5589 24.3465 40.5549 23.3015 40.7109 20.5871C40.8186 18.72 40.3315 17.6265 39.7677 16.9827L41.7328 16.5072C41.733 16.5079 43.2618 16.1133 39.0037 14.9043ZM19.8711 14.8515L23.7176 14.061L36.7167 11.3896L38.6534 10.9913C38.0346 12.1239 38.0605 13.6739 38.1629 14.6701C38.1854 14.8955 38.2112 15.1013 38.2363 15.2577L36.1165 15.7848L19.7094 19.8664L19.8711 14.8515ZM3.34799 18.8604L5.28442 19.2587L17.7682 21.825L18.8588 22.0484L22.1294 22.7206L22.2907 27.7356L5.42781 23.5402L3.76538 23.1271C3.78982 22.9704 3.81565 22.7648 3.83908 22.5388C3.94086 21.5433 3.96731 19.993 3.34799 18.8604ZM2.59568 12.5205C2.57224 11.4246 2.76753 10.6321 3.16223 10.2292C3.41342 9.972 3.70986 9.91848 3.91316 9.91848C4.02058 9.91848 4.09792 9.9334 4.10318 9.9334L14.0814 13.1864L19.0596 14.8095L18.8963 19.8595L4.93032 15.944L4.1933 15.7376C4.16623 15.7299 4.1295 15.7246 4.10118 15.7234C4.04364 15.7193 2.66286 15.5922 2.59568 12.5205ZM17.6207 35.5974L2.91806 31.4753C2.89086 31.4674 2.85451 31.4622 2.82619 31.4608C2.76765 31.4569 1.38624 31.3299 1.31943 28.259C1.29562 27.1617 1.49191 26.3699 1.88586 25.9667C2.13768 25.7095 2.43424 25.656 2.63717 25.656C2.74484 25.656 2.82192 25.6704 2.82756 25.6704C2.82756 25.6704 2.82819 25.6704 2.82756 25.6704L17.783 30.5473L17.6207 35.5974ZM36.8866 30.4073C36.9098 30.6334 36.9356 30.8388 36.9607 30.9955L18.4334 35.6045L18.5954 30.5895L22.5563 29.7752L23.1413 29.9167L25.3338 29.2041L35.4404 27.1273L37.3778 26.7287C36.7584 27.8612 36.784 29.4118 36.8866 30.4073ZM37.9071 23.5917C37.8734 23.5925 37.8397 23.597 37.808 23.607L36.4106 23.9982L23.1057 27.7289L22.943 22.679L27.3082 21.2552L37.878 17.8081C37.8794 17.8075 38.4341 17.6843 38.8412 18.0983C39.2353 18.5011 39.4308 19.2937 39.4077 20.3896C39.3388 23.4602 37.9574 23.5878 37.9071 23.5917Z" fill="white"/>
</g>
<defs>
<clipPath id="clip0_6_282">
<rect width="42" height="42" fill="white"/>
</clipPath>
</defs>
</svg>
