<svg width="61" height="49" viewBox="0 0 61 49" fill="none" xmlns="http://www.w3.org/2000/svg">
<path d="M60.0627 5.95964C57.8708 6.93089 55.5162 7.58714 53.0408 7.88377C55.595 6.35547 57.5058 3.95012 58.4168 1.11652C56.0172 2.54187 53.3909 3.54516 50.6521 4.08277C48.8103 2.11629 46.3709 0.812875 43.7125 0.374888C41.054 -0.0630987 38.3254 0.388847 35.9501 1.66056C33.5748 2.93227 31.6859 4.95259 30.5765 7.40787C29.4671 9.86314 29.1994 12.616 29.8148 15.239C24.9525 14.9949 20.1959 13.7311 15.8536 11.5296C11.5113 9.3282 7.68043 6.23832 4.6096 2.46052C3.5596 4.27177 2.95585 6.37177 2.95585 8.60827C2.95468 10.6216 3.45048 12.6042 4.39928 14.3799C5.34807 16.1557 6.72052 17.6699 8.39485 18.788C6.45307 18.7262 4.55414 18.2016 2.8561 17.2576V17.4151C2.8559 20.239 3.83268 22.9759 5.6207 25.1615C7.40872 27.3471 9.89785 28.8468 12.6657 29.4061C10.8644 29.8936 8.97586 29.9655 7.14272 29.6161C7.92365 32.0459 9.44484 34.1706 11.4933 35.6928C13.5418 37.2151 16.015 38.0586 18.5667 38.1054C14.235 41.5059 8.88543 43.3504 3.37847 43.3423C2.40297 43.3425 1.4283 43.2856 0.459473 43.1716C6.04935 46.7657 12.5564 48.6732 19.202 48.6658C41.6982 48.6658 53.9963 30.0335 53.9963 13.874C53.9963 13.349 53.9832 12.8188 53.9596 12.2938C56.3517 10.5638 58.4166 8.42162 60.0575 5.96752L60.0627 5.95964Z" fill="#241400"/>
</svg>
