<svg width="63" height="63" viewBox="0 0 63 63" fill="none" xmlns="http://www.w3.org/2000/svg">
<path d="M41.1695 0H21.8305C4.18262 0 -0.000976562 4.18359 -0.000976562 21.8315V41.1705C-0.000976562 58.8184 4.18262 63.002 21.8305 63.002H41.1695C58.8174 63.002 63.001 58.8184 63.001 41.1705V21.8315C63.001 4.18359 58.7761 0 41.1695 0ZM50.8597 44.9426H46.2863C44.5538 44.9426 44.0203 43.5684 40.9037 40.4106C38.1967 37.7862 36.9977 37.4378 36.3303 37.4378C35.3873 37.4378 35.1196 37.7035 35.1196 38.997V43.1294C35.1196 44.2378 34.7711 44.9033 31.8376 44.9033C26.9866 44.9033 21.6041 41.9698 17.83 36.5046C12.1383 28.4957 10.5811 22.4969 10.5811 21.2566C10.5811 20.5892 10.8468 19.9651 12.1285 19.9651H16.7117C17.8713 19.9651 18.3123 20.4986 18.7632 21.7389C21.0292 28.2811 24.8033 34.0121 26.3606 34.0121C26.9355 34.0121 27.2012 33.7463 27.2012 32.2796V25.5229C27.026 22.4063 25.3861 22.1386 25.3861 21.0322C25.3861 20.4986 25.8271 19.9651 26.5338 19.9651H33.7414C34.716 19.9651 35.0743 20.4986 35.0743 21.6464V30.7617C35.0743 31.7461 35.5153 32.0946 35.7811 32.0946C36.3559 32.0946 36.8481 31.7461 37.9132 30.679C41.205 26.9876 43.5635 21.296 43.5635 21.296C43.8707 20.6286 44.4042 20.0045 45.5638 20.0045H50.147C51.5212 20.0045 51.8283 20.7113 51.5212 21.6956C50.9463 24.3613 45.3374 32.2777 45.3374 32.2777C44.855 33.077 44.67 33.4254 45.3374 34.3173C45.8296 34.9847 47.4301 36.3687 48.4952 37.609C50.4542 39.8337 51.9602 41.7001 52.3619 42.9916C52.8127 44.2733 52.1473 44.9407 50.8538 44.9407L50.8597 44.9426Z" fill="#241400"/>
</svg>
