<svg width="63" height="63" viewBox="0 0 63 63" fill="none" xmlns="http://www.w3.org/2000/svg">
<g clip-path="url(#clip0_6_262)">
<path d="M61.6874 17.0809C61.3307 15.8084 60.6358 14.6563 59.6767 13.7471C58.6904 12.81 57.4816 12.1397 56.1644 11.7994C51.2347 10.5 31.4842 10.5 31.4842 10.5C23.2504 10.4063 15.0187 10.8184 6.83541 11.7338C5.51816 12.0992 4.31164 12.7845 3.32316 13.7288C2.35191 14.6633 1.64841 15.8156 1.28091 17.0783C0.398105 21.8341 -0.0308223 26.663 -8.88783e-05 31.5C-0.0315889 36.3326 0.396286 41.16 1.28091 45.9218C1.64054 47.1791 2.34141 48.3263 3.31529 49.2529C4.28916 50.1795 5.50191 50.8489 6.83541 51.2033C11.8308 52.5 31.4842 52.5 31.4842 52.5C39.7284 52.5938 47.9706 52.1818 56.1644 51.2663C57.4816 50.926 58.6904 50.2556 59.6767 49.3185C60.6479 48.3919 61.3383 47.2395 61.6848 45.9848C62.5906 41.2308 63.0311 36.3998 62.9999 31.5604C63.0681 26.7005 62.6282 21.8467 61.6874 17.0783V17.0809ZM25.2052 40.488V22.5146L41.6377 31.5026L25.2052 40.488Z" fill="#241400"/>
</g>
<defs>
<clipPath id="clip0_6_262">
<rect width="63" height="63" fill="white"/>
</clipPath>
</defs>
</svg>
